<?xml version="1.0" encoding="utf-8"?>
<!-- Generator: Adobe Illustrator 21.1.0, SVG Export Plug-In . SVG Version: 6.00 Build 0)  -->
<svg version="1.1" id="Layer_1" xmlns="http://www.w3.org/2000/svg" xmlns:xlink="http://www.w3.org/1999/xlink" x="0px" y="0px"
	 viewBox="0 0 100 100" style="enable-background:new 0 0 100 100;" xml:space="preserve">
<g>
	<path d="M78.4,53l-6.5,0V40.6c0-1.6-1.3-2.9-2.9-2.9h-4.7V15.8c1.3-0.3,2.3-1.4,2.3-2.8V7.6c0-1.6-1.3-2.9-2.9-2.9h-2.4l0-1.8
		c0-1.6-1.3-2.9-2.9-2.9H41.9c-1.1,0-2.9,0.8-2.9,3c0,0.1,0,0.3,0,0.6c0,0.3,0,0.7,0,1.1h-2.4c-1.6,0-2.9,1.3-2.9,2.9v5.3
		c0,1.4,1,2.6,2.3,2.8v21.9h-4.7c-1.6,0-2.9,1.3-2.9,2.9V53h-6.5c-1.6,0-2.9,1.3-2.9,2.9v41.2c0,1.6,1.3,2.9,2.9,2.9h56.5
		c1.6,0,2.9-1.3,2.9-2.9V55.9C81.3,54.3,80,53,78.4,53z M77.2,57.1l-0.1,10.6H23.1V57.1H77.2z M32.5,54.7V41.8h5.3v12.9H32.5z
		 M62.5,8.8v2.9H37.8V8.8H62.5z M43.1,6.4V4.1h14.2v2.3H43.1z M67.8,41.8v12.9h-5.3V41.8H67.8z M41.9,41.8c0,0.2,0,0.4,0,0.6
		c0,4.5,3.7,8.2,8.2,8.2c4.5,0,8.2-3.7,8.2-8.2c0,0,0,0,0,0c0-0.2,0-0.4,0-0.6h1.8v12.9h-20V41.8H41.9z M40.1,39.4V14.1h2.9v24
		c-0.2,0.4-0.4,0.8-0.6,1.3H40.1z M50.2,36.5c3.2,0,5.8,2.6,5.8,5.8s-2.6,5.8-5.8,5.8s-5.8-2.6-5.8-5.8
		C44.3,39.1,46.9,36.5,50.2,36.5z M45.5,35.6V14.1H49v20.1C47.7,34.4,46.5,34.9,45.5,35.6z M51.3,34.2V14.1h3.5v21.5
		C53.8,34.9,52.6,34.4,51.3,34.2z M57.8,39.4c-0.2-0.4-0.4-0.9-0.6-1.3l0,0V14.1h2.9v25.3H57.8z M77.2,70l0,25.9h-10V70H77.2z
		 M64.8,70v25.9h-2.3V70H64.8z M60.2,70l0,25.9h-6.4V70H60.2z M51.3,70v25.9H49V70H51.3z M46.6,70v25.9h-6.5V70H46.6z M37.8,70v25.9
		h-2.3V70H37.8z M33.1,70v25.9h-10V70H33.1z"/>
	<path d="M63.7,64.1c1,0,1.8-0.8,1.8-1.8c0-1-0.8-1.7-1.8-1.7v0c-1,0-1.8,0.8-1.8,1.8S62.7,64.1,63.7,64.1z"/>
	<path d="M36.6,64.1c1,0,1.8-0.8,1.8-1.8c0-1-0.8-1.7-1.8-1.7v0c-1,0-1.8,0.8-1.8,1.8S35.6,64.1,36.6,64.1z"/>
	<circle cx="50.2" cy="62.4" r="1.8"/>
</g>
</svg>
